# xmcd
#
# Track frame offsets:
#	150
#	18836
#	38112
#	44536
#	47690
#	48898
#	64148
#	82207
#	84991
#	99044
#	113953
#	133313
#	137548
#	146005
#	161658
#	179312
#	201866
#	208019
#	218091
#
# Disc length: 2950 seconds
#
# Revision: 1
# Processed by: cddbd v1.5.2PL0 Copyright (c) Steve Scherf et al.
# Submitted via: audiograbber 1.82.02
#
DISCID=0e0b8413
DTITLE=Alison Krauss and Union Station - Live At Winterhawk, 07-17-93
DYEAR=1993
DGENRE=Bluegrass
TTITLE0=Two Highways
TTITLE1=Wild Bill Jones
TTITLE2=Instrumental
TTITLE3=Steffey Intro
TTITLE4=Talk
TTITLE5=Steel Rails
TTITLE6=When Time Was Young
TTITLE7=Ron Block Intro
TTITLE8=Cluck Old Hen
TTITLE9=Another Night
TTITLE10=I'll Take My Heart
TTITLE11=Barry Bales Intro
TTITLE12=Kern County Breakdown
TTITLE13=Sleep On
TTITLE14=It's All Over Now
TTITLE15=Oh Atlanta
TTITLE16=Band Intros
TTITLE17=Big Mon
TTITLE18=Band Intros
EXTD=Another Delivery By The Dream`Master Of Phazenet
EXTT0=
EXTT1=
EXTT2=
EXTT3=
EXTT4=
EXTT5=
EXTT6=
EXTT7=
EXTT8=
EXTT9=
EXTT10=
EXTT11=
EXTT12=
EXTT13=
EXTT14=
EXTT15=
EXTT16=
EXTT17=
EXTT18=
PLAYORDER=
